<?xml version="1.0" encoding="iso-8859-1"?>
<!-- Generator: Adobe Illustrator 19.0.0, SVG Export Plug-In . SVG Version: 6.00 Build 0)  -->
<svg version="1.1" id="Layer_1" xmlns="http://www.w3.org/2000/svg" xmlns:xlink="http://www.w3.org/1999/xlink" x="0px" y="0px"
	 viewBox="0 0 512 512" style="enable-background:new 0 0 512 512;" xml:space="preserve">
<g>
	<g>
		<path d="M490.519,256.023c6.807-7.913,12.218-17.001,15.907-26.81c3.7-10.007,5.574-20.468,5.574-31.104
			c0-49.024-39.866-88.913-88.879-88.913c-7.971,0-15.837,1.059-23.471,3.153c2.095-7.633,3.153-15.488,3.153-23.471
			C402.804,39.866,362.915,0,313.891,0c-10.624,0-21.097,1.873-31.162,5.597c-9.763,3.665-18.839,9.076-26.752,15.884
			c-7.901-6.819-16.989-12.207-26.764-15.86C219.229,1.897,208.756,0,198.074,0c-49.012,0-88.879,39.866-88.879,88.879
			c0,7.983,1.059,15.837,3.154,23.471c-7.633-2.095-15.5-3.154-23.471-3.154C39.866,109.196,0,149.062,0,198.074
			c0,10.682,1.897,21.155,5.62,31.127c3.654,9.786,9.053,18.874,15.86,26.775c-6.807,7.913-12.218,17.001-15.907,26.81
			C1.873,292.794,0,303.255,0,313.891c0,49.024,39.866,88.913,88.879,88.913c7.971,0,15.837-1.059,23.471-3.153
			c-2.095,7.633-3.154,15.488-3.154,23.471c0,49.012,39.889,88.879,88.913,88.879c10.624,0,21.097-1.873,31.162-5.597
			c9.763-3.665,18.839-9.076,26.752-15.884c7.901,6.819,16.989,12.206,26.764,15.86c9.984,3.724,20.457,5.62,31.139,5.62
			c49.012,0,88.879-39.866,88.879-88.879c0-7.982-1.059-15.837-3.153-23.471c7.633,2.095,15.5,3.153,23.471,3.153
			c49.012,0,88.879-39.866,88.879-88.879c0-10.682-1.897-21.155-5.62-31.127C502.737,273.012,497.327,263.924,490.519,256.023z
			 M198.074,23.273c7.889,0,15.628,1.396,23.005,4.154c8.739,3.258,16.721,8.425,23.319,15.046v53.341
			c0,6.423,5.213,11.636,11.636,11.636c6.423,0,11.636-5.213,11.636-11.636V42.368c6.598-6.575,14.545-11.718,23.191-14.964
			c7.412-2.746,15.162-4.131,23.028-4.131c36.201,0,65.641,29.428,65.641,65.606c0,7.889-1.396,15.616-4.154,22.982
			c-3.258,8.716-8.46,16.78-15.046,23.354c-0.012,0.012-0.023,0.023-0.035,0.035L256,239.546l-104.32-104.32
			c-6.586-6.563-11.799-14.639-15.057-23.354c-2.758-7.377-4.154-15.104-4.154-22.993C132.468,52.701,161.897,23.273,198.074,23.273
			z M111.872,375.377c-7.377,2.758-15.104,4.154-22.993,4.154c-36.177,0-65.606-29.44-65.606-65.641
			c0-7.866,1.385-15.616,4.108-22.97c3.258-8.669,8.39-16.617,14.929-23.203h53.457c6.423,0,11.636-5.201,11.636-11.636
			c0-6.423-5.213-11.636-11.636-11.636H42.531c-6.656-6.598-11.834-14.604-15.104-23.377c-2.758-7.366-4.154-15.104-4.154-22.993
			c0-36.177,29.428-65.606,65.606-65.606c7.889,0,15.616,1.396,22.993,4.154c8.716,3.258,16.791,8.471,23.377,15.081L239.546,256
			l-104.32,104.32C128.663,366.906,120.588,372.119,111.872,375.377z M313.926,488.727c-7.889,0-15.628-1.396-23.005-4.154
			c-8.704-3.247-16.663-8.39-23.249-14.988v-53.236c0-6.423-5.213-11.636-11.636-11.636c-6.423,0-11.636,5.213-11.636,11.636v53.225
			c-6.609,6.598-14.58,11.764-23.261,15.023c-7.412,2.746-15.162,4.131-23.028,4.131c-36.201,0-65.641-29.428-65.641-65.606
			c0-7.889,1.396-15.616,4.154-22.982c3.258-8.716,8.46-16.78,15.046-23.354L256,272.454l104.285,104.285
			c0.012,0.023,0.035,0.035,0.058,0.058c3.293,3.281,6.225,6.935,8.762,10.857c2.525,3.933,4.643,8.122,6.272,12.474
			c2.758,7.377,4.154,15.104,4.154,22.993C379.532,459.299,350.103,488.727,313.926,488.727z M416.303,267.718h53.329
			c6.575,6.575,11.706,14.522,14.941,23.215c2.758,7.366,4.154,15.104,4.154,22.993c0,36.177-29.428,65.606-65.606,65.606
			c-7.889,0-15.616-1.396-22.982-4.154c-8.727-3.258-16.803-8.471-23.389-15.081L272.454,256l104.32-104.32
			c6.563-6.586,14.639-11.799,23.354-15.057c7.378-2.758,15.104-4.154,22.993-4.154c36.177,0,65.606,29.44,65.606,65.641
			c0,7.866-1.385,15.616-4.108,22.97c-3.293,8.751-8.471,16.756-15.092,23.366h-53.225c-6.423,0-11.636,5.213-11.636,11.636
			C404.666,262.516,409.879,267.718,416.303,267.718z"/>
	</g>
</g>
<g>
</g>
<g>
</g>
<g>
</g>
<g>
</g>
<g>
</g>
<g>
</g>
<g>
</g>
<g>
</g>
<g>
</g>
<g>
</g>
<g>
</g>
<g>
</g>
<g>
</g>
<g>
</g>
<g>
</g>
</svg>
