<?xml version="1.0" standalone="no"?>
<!DOCTYPE svg PUBLIC "-//W3C//DTD SVG 1.0//EN" "http://www.w3.org/TR/2001/REC-SVG-20010904/DTD/svg10.dtd">
<svg xmlns="http://www.w3.org/2000/svg" xmlns:xlink="http://www.w3.org/1999/xlink" id="body_1" width="51" height="38">

<g transform="matrix(0.07421875 0 0 0.07421875 6.5 -0)">
	<g>
		<g>
            <path d="M378.96 116.54C 375.358 113.357 369.858 113.700005 366.67398 117.303C 363.49298 120.907 363.83398 126.407 367.438 129.589C 403.69 161.60101 424.482 207.676 424.482 256.001C 424.482 348.957 348.858 424.58002 255.903 424.58002C 162.948 424.58002 87.323 348.956 87.323 256C 87.323 163.044 162.949 87.421005 255.903 87.421005C 286.754 87.421005 316.928 95.827 343.163 111.731C 347.27 114.223 352.625 112.911 355.11798 108.799C 357.61 104.688 356.29697 99.336006 352.18597 96.844C 323.231 79.29 289.93597 70.012 255.90298 70.012C 153.349 70.012 69.915 153.446 69.915 256C 69.915 358.55402 153.349 441.988 255.90399 441.988C 358.458 441.988 441.892 358.55402 441.892 256C 441.892 202.685 418.954 151.854 378.96 116.54z" stroke="none" fill="#000000" fill-rule="nonzero" />
		</g>
	</g>
	<g>
		<g>
            <path d="M495.726 166.828C 471.908 102.77 424.568 51.82 362.429 23.366C 300.29 -5.088 230.791 -7.64 166.732 16.179C 102.673 39.997 51.725 87.336 23.27 149.475C -21.760998 247.813 0.12199974 364.453 77.722 439.71802C 81.174 443.065 86.685 442.98 90.03 439.53003C 93.377 436.08002 93.294 430.56802 89.841995 427.22202C 17.523 357.079 -2.869 248.374 39.099 156.723C 93.841 37.176 235.634 -15.547 355.182 39.194C 474.729 93.936005 527.452 235.732 472.709 355.277C 417.96802 474.824 276.17 527.548 156.626 472.806C 141.17401 465.73 126.49801 457.035 113.00801 446.961C 109.15701 444.085 103.70001 444.87698 100.82501 448.727C 97.94901 452.57898 98.73901 458.034 102.59101 460.91C 117.06601 471.71802 132.807 481.046 149.378 488.634C 183.342 504.186 219.503 512 255.775 512C 285.865 512 316.03 506.622 345.076 495.82098C 409.13397 472.00198 460.08398 424.663 488.538 362.52496C 516.992 300.387 519.544 230.887 495.726 166.828z" stroke="none" fill="#000000" fill-rule="nonzero" />
		</g>
	</g>
	<g>
		<g>
            <path d="M368.202 255.999C 383.353 238.696 382.68298 212.27798 366.186 195.78099C 355.946 185.54099 341.88202 181.40099 328.547 183.357C 330.503 170.023 326.36398 155.959 316.123 145.71799C 299.62997 129.22398 273.20798 128.55199 255.90498 143.70198C 247.86298 136.65099 237.66298 132.80098 226.86998 132.80098C 215.08998 132.80098 204.01498 137.38898 195.68498 145.71799C 187.35298 154.04898 182.76498 165.124 182.76498 176.90399C 182.76498 179.08199 182.92398 181.23499 183.23299 183.35199C 169.90698 181.40599 155.85599 185.54799 145.62198 195.78099C 129.12698 212.27798 128.45598 238.69699 143.60797 256C 128.45396 273.30402 129.12598 299.724 145.62297 316.219C 154.22098 324.817 165.51497 329.115 176.80898 329.115C 178.96597 329.115 181.12297 328.956 183.26198 328.641C 181.30598 341.97498 185.44498 356.039 195.68498 366.28C 204.28299 374.878 215.57698 379.178 226.87099 379.178C 237.24498 379.178 247.62 375.551 255.90498 368.29602C 273.206 383.44904 299.62598 382.777 316.125 366.28003C 326.365 356.04004 330.505 341.976 328.549 328.64203C 330.687 328.95502 332.84302 329.114 335.001 329.114C 346.293 329.114 357.591 324.81403 366.18802 316.216C 382.683 299.722 383.355 273.302 368.202 255.999zM207.995 158.028C 213.03699 152.986 219.73999 150.209 226.871 150.209C 234.003 150.209 240.70601 152.986 245.74901 158.028L245.74901 158.028L247.201 159.48L247.201 178.34799C 247.201 183.155 251.097 187.05199 255.905 187.05199C 260.713 187.05199 264.609 183.15498 264.609 178.34799L264.609 178.34799L264.609 159.482L266.062 158.02899C 276.47 147.62 293.406 147.622 303.81302 158.02899C 314.22202 168.437 314.22202 185.37299 303.81302 195.78198L303.81302 195.78198L255.90402 243.69098L207.99402 195.78098C 202.95102 190.73898 200.17401 184.03598 200.17401 176.90598C 200.175 169.775 202.953 163.071 207.995 158.028zM303.815 353.972C 293.403 364.37997 276.46802 364.37997 266.062 353.972L266.062 353.972L264.609 352.51898L264.609 333.65097C 264.609 328.84396 260.713 324.94696 255.90501 324.94696C 251.09702 324.94696 247.20102 328.84396 247.20102 333.65097L247.20102 333.65097L247.20102 352.51898L245.74902 353.97098C 240.70602 359.01297 234.00302 361.78998 226.87102 361.78998C 219.74002 361.78998 213.03702 359.01297 207.99503 353.97098C 197.58603 343.563 197.58603 326.62698 207.99503 316.218L207.99503 316.218L223.02603 301.18698C 226.42503 297.788 226.42503 292.27698 223.02603 288.878C 219.62703 285.47998 214.11603 285.479 210.71603 288.878L210.71603 288.878L195.68503 303.909C 185.27803 314.317 168.34203 314.317 157.93402 303.909C 147.52602 293.501 147.52502 276.565 157.93402 266.156L157.93402 266.156L159.38602 264.703L178.25201 264.703C 183.06001 264.703 186.95601 260.806 186.95601 255.99901C 186.95601 251.192 183.06001 247.29501 178.25201 247.29501L178.25201 247.29501L159.38602 247.29501L157.93402 245.84201C 147.52602 235.434 147.52602 218.49802 157.93301 208.08902C 168.34201 197.68202 185.27701 197.68002 195.686 208.08902L195.686 208.08902L243.59601 255.99902L235.669 263.92603C 232.27 267.325 232.27 272.83603 235.669 276.23502C 239.07 279.634 244.58 279.634 247.979 276.23502L247.979 276.23502L255.905 268.30902L303.814 316.21802C 314.222 326.628 314.222 343.564 303.815 353.972zM353.877 303.91C 343.46503 314.318 326.53003 314.318 316.12402 303.91L316.12402 303.91L268.214 256L316.124 208.09C 326.531 197.68199 343.46698 197.68199 353.875 208.09C 364.283 218.498 364.284 235.43399 353.876 245.841L353.876 245.841L352.422 247.294L333.554 247.294C 328.74597 247.294 324.84998 251.19101 324.84998 255.998C 324.84998 260.805 328.74597 264.702 333.554 264.702L333.554 264.702L352.422 264.702L353.875 266.155C 364.285 276.566 364.285 293.502 353.877 303.91z" stroke="none" fill="#000000" fill-rule="nonzero" />
		</g>
	</g>
	<g>
	</g>
	<g>
	</g>
	<g>
	</g>
	<g>
	</g>
	<g>
	</g>
	<g>
	</g>
	<g>
	</g>
	<g>
	</g>
	<g>
	</g>
	<g>
	</g>
	<g>
	</g>
	<g>
	</g>
	<g>
	</g>
	<g>
	</g>
	<g>
	</g>
</g>
</svg>