<?xml version="1.0" encoding="iso-8859-1"?>
<!-- Generator: Adobe Illustrator 19.0.1, SVG Export Plug-In . SVG Version: 6.00 Build 0)  -->
<svg version="1.1" xmlns="http://www.w3.org/2000/svg" xmlns:xlink="http://www.w3.org/1999/xlink" x="0px" y="0px"
	 viewBox="0 0 128 128" style="enable-background:new 0 0 128 128;" xml:space="preserve">
<g id="_x31_2">
	<path id="icon_10_" style="fill:#231F20;" d="M123.042,74.164c0,15.9-12.897,28.797-28.797,28.797
		c-10.78,0-20.199-5.941-25.125-14.733c-0.022-0.13-0.022-0.238-0.022-0.346c-0.043,0.022-0.108,0.043-0.151,0.043
		c0.065,0.108,0.108,0.194,0.173,0.302c0.497,11.817,3.197,29.056,13.718,39.772H45.162c10.542-10.737,13.264-28.041,13.761-39.858
		c0.151-0.238,0.281-0.497,0.41-0.756c-0.13-0.043-0.259-0.065-0.389-0.108c0,0.281,0,0.562-0.021,0.864
		c-4.904,8.836-14.345,14.82-25.168,14.82c-15.9,0-28.797-12.897-28.797-28.797s12.897-28.797,28.797-28.797
		c2.571,0,5.055,0.346,7.432,0.972c-3.759-4.839-5.984-10.931-5.984-17.542C35.203,12.897,48.1,0,64,0s28.797,12.897,28.797,28.797
		c0,6.611-2.225,12.703-5.984,17.542c2.376-0.627,4.861-0.972,7.432-0.972C110.145,45.367,123.042,58.264,123.042,74.164z"/>
</g>
<g id="Layer_1">
</g>
</svg>
