<?xml version="1.0" encoding="UTF-8"?>
<svg xmlns="http://www.w3.org/2000/svg" xmlns:xlink="http://www.w3.org/1999/xlink" width="50px" height="50px" viewBox="0 0 50 50" version="1.1">
<g id="surface1">
<rect x="0" y="0" width="50" height="50" style="fill:rgb(100%,100%,100%);fill-opacity:1;stroke:none;"/>
<path style=" stroke:none;fill-rule:nonzero;fill:rgb(16.862745%,59.215686%,46.666667%);fill-opacity:1;" d="M 13.5 2.4375 C 15.46875 2.386719 17.46875 2.949219 19.171875 3.925781 C 20.765625 4.839844 22.117188 6.152344 23.097656 7.699219 C 24.164062 9.40625 24.78125 11.386719 24.824219 13.398438 C 24.816406 16.675781 24.820312 19.925781 24.820312 23.199219 C 24.828125 23.652344 24.796875 24.089844 24.851562 24.539062 C 24.839844 24.6875 24.824219 24.835938 24.808594 24.980469 C 21.074219 24.984375 17.335938 24.980469 13.601562 24.984375 C 11.230469 25.042969 8.847656 24.253906 6.933594 22.867188 C 4.074219 20.820312 2.273438 17.421875 2.257812 13.898438 C 2.1875 11.453125 2.984375 9.007812 4.433594 7.035156 C 5.683594 5.34375 7.386719 4.003906 9.347656 3.222656 C 10.664062 2.710938 12.082031 2.402344 13.5 2.4375 Z M 13.5 2.4375 "/>
<path style=" stroke:none;fill-rule:nonzero;fill:rgb(55.294118%,76.862745%,59.215686%);fill-opacity:1;" d="M 36.136719 2.445312 C 36.851562 2.4375 37.59375 2.40625 38.304688 2.511719 C 40.296875 2.765625 42.214844 3.5625 43.800781 4.804688 C 45.292969 5.980469 46.496094 7.507812 47.238281 9.261719 C 48.480469 12.105469 48.449219 15.453125 47.1875 18.285156 C 46.246094 20.414062 44.625 22.238281 42.621094 23.421875 C 40.910156 24.441406 38.898438 25.019531 36.898438 24.984375 C 33.128906 24.980469 29.355469 24.984375 25.585938 24.980469 C 25.539062 24.617188 25.570312 24.261719 25.578125 23.898438 C 25.574219 20.425781 25.585938 16.976562 25.574219 13.5 C 25.609375 10.203125 27.1875 7.011719 29.746094 4.945312 C 31.546875 3.480469 33.816406 2.578125 36.136719 2.445312 Z M 36.136719 2.445312 "/>
<path style=" stroke:none;fill-rule:nonzero;fill:rgb(34.901961%,72.54902%,69.411765%);fill-opacity:1;" d="M 14.300781 25.71875 C 17.804688 25.71875 21.308594 25.714844 24.8125 25.71875 C 24.867188 26.082031 24.824219 26.4375 24.820312 26.800781 C 24.824219 30.304688 24.816406 33.789062 24.824219 37.300781 C 24.777344 39.386719 24.121094 41.433594 22.980469 43.179688 C 21.832031 44.921875 20.214844 46.339844 18.316406 47.21875 C 15.355469 48.632812 11.75 48.621094 8.78125 47.230469 C 6.734375 46.28125 4.984375 44.695312 3.835938 42.757812 C 2.089844 39.871094 1.765625 36.210938 2.953125 33.054688 C 3.617188 31.238281 4.78125 29.605469 6.257812 28.359375 C 8 26.886719 10.1875 25.957031 12.460938 25.75 C 13.070312 25.695312 13.675781 25.722656 14.300781 25.71875 Z M 14.300781 25.71875 "/>
<path style=" stroke:none;fill-rule:nonzero;fill:rgb(25.490196%,58.823529%,55.294118%);fill-opacity:1;" d="M 25.566406 25.703125 C 29.546875 25.699219 33.523438 25.699219 37.5 25.703125 C 40.1875 25.816406 42.75 26.960938 44.695312 28.804688 C 46.460938 30.488281 47.679688 32.8125 48.039062 35.226562 C 48.5625 38.484375 47.597656 41.929688 45.40625 44.410156 C 45.082031 44.832031 44.734375 45.1875 44.3125 45.511719 C 43.210938 46.496094 41.890625 47.234375 40.496094 47.710938 C 38.054688 48.53125 35.328125 48.496094 32.910156 47.605469 C 32.429688 47.433594 31.988281 47.1875 31.527344 46.972656 C 30.152344 46.269531 29.027344 45.253906 28.035156 44.085938 C 27.585938 43.5625 27.25 42.976562 26.902344 42.386719 C 26.617188 41.910156 26.449219 41.375 26.21875 40.867188 C 25.765625 39.605469 25.535156 38.242188 25.558594 36.898438 C 25.566406 33.449219 25.554688 30.136719 25.558594 26.695312 C 25.546875 26.363281 25.523438 26.035156 25.566406 25.703125 Z M 25.566406 25.703125 "/>
</g>
</svg>
